<?xml version="1.0" encoding="utf-8"?>
<!-- Generator: Adobe Illustrator 24.1.2, SVG Export Plug-In . SVG Version: 6.00 Build 0)  -->
<svg version="1.1" id="Слой_1" xmlns="http://www.w3.org/2000/svg" xmlns:xlink="http://www.w3.org/1999/xlink" x="0px" y="0px"
	 viewBox="0 0 725 574" xml:space="preserve">
<style type="text/css">
	.st0{fill:none;}
	.st1{fill:none;stroke:#BEBEBE;stroke-width:4;stroke-linecap:round;stroke-linejoin:round;stroke-miterlimit:10;}
	.st2{fill:none;stroke:#BEBEBE;stroke-width:4;stroke-linecap:round;stroke-miterlimit:10;}
</style>
<g style="fill: none; stroke: #bebebe; stroke-width: 4;">
	<circle style="fill: #bebebe;" class="st0" cx="59" cy="19" r="10"/>
	<circle style="fill: #bebebe;" class="st0" cx="351" cy="256" r="10"/>
	<circle style="fill: #bebebe;" class="st0" cx="203" cy="551" r="10"/>
	<path class="st1" d="M78.52,7.06c0,0-6.27,1.33-12.14,5.19"/>
	<path class="st1" d="M95.98,2.98c12.65-1.86,24.83,0.64,24.83,0.64"/>
	<path class="st2" d="M137.56,8.54c0,0,9.55,4.27,15.7,9.02"/>
	<path class="st1" d="M166.22,28.32c0,0,4.8,3.49,9.61,7.68"/>
	<path class="st1" d="M189.62,46.26c0,0,3.8,3.12,14.81,9.35"/>
	<path class="st1" d="M219.71,63.55c20.52,9.93,20.52,9.93,20.52,9.93"/>
	<path class="st1" d="M255.96,79.94c23.4,8.69,23.4,8.69,23.4,8.69"/>
	<line class="st1" x1="295.84" y1="93.4" x2="315.36" y2="99.11"/> 
	<line class="st1" x1="332.12" y1="103.1" x2="347.88" y2="106.03"/> 
	<path class="st1" d="M365.66,109.02c0,0,12.04,1.22,18.51,1.45"/>
	<path class="st1" d="M402.06,111.15c0,0,19.18,0,20.89,0"/>
	<path class="st1" d="M440.87,108.3c0,0,11.4-1.38,22.26-6.38"/>
	<path class="st1" d="M480.1,96.4c0,0,10.45-3.24,20.73-5.47"/>
	<path class="st1" d="M518,87.55c0,0,12.22-2.65,25.06-3.22"/>
	<line class="st1" x1="560.01" y1="82.97" x2="584" y2="82.97"/>
	<path class="st1" d="M601.06,84.33c0,0,9,0.29,14.88,2.15"/>
	<path class="st1" d="M633.24,91.02c0,0,9.92,1.97,15.38,5.1"/>
	<path class="st1" d="M664.02,103.13c0,0,6.04,2.74,9.78,5.4"/>
	<path class="st1" d="M688.06,118.96c0,0,5.62,4.9,9.17,10.22"/>
	<line class="st1" x1="707.09" y1="142.42" x2="710.34" y2="147.89"/>
	<path class="st1" d="M717.3,163.83c0,0,2.43,3.26,3.57,11.47"/>
	<path class="st1" d="M722.86,193.13c0,0,0.29,16.4-0.29,18.7"/>
	<path class="st1" d="M718.96,229.51c0,0-2.68,11.57-5.84,16.28"/>
	<path class="st1" d="M703.3,261.36c0,0-3.07,6.3-13.36,14.36"/>
	<path class="st1" d="M676.55,286.11c0,0-2.48,2.64-8.23,4.94"/>
	<path class="st1" d="M651.92,297.61c0,0-4.85,1.79-13.73,3.14"/>
	<path class="st1" d="M620.96,302.89c0,0-5.45,0.5-13.91,0"/>
	<path class="st1" d="M589.93,302.31c0,0-5.94,0.01-12.83-1.28"/>
	<path class="st1" d="M559.15,298.4c0,0-8.25-0.89-13.17-2.24"/>
	<path class="st1" d="M528.93,292.85c0,0-7.31-1.29-14.84-3.43"/>
	<path class="st1" d="M496.68,284.8c0,0-5.99-1.22-13.42-3.8"/>
	<path class="st1" d="M465.87,276.22c0,0-9.79-2.7-18.58-5.42"/>
	<path class="st1" d="M429.82,265.72c0,0-7.95-2.38-19.61-4.07"/>
	<path class="st1" d="M392.77,259.08c0,0-5.43-1.07-11.75-1.05"/>
	<line class="st1" x1="363.96" y1="258.03" x2="361.04" y2="258.03"/>
	<path class="st1" d="M342.38,258.8c0,0-4.33-0.25-12.21,0.61"/>
	<path class="st1" d="M312.52,262.01c0,0-7.32,0.97-13.3,2.77"/>
	<path class="st2" d="M281.82,270.97c0,0-3.02,1.02-6.09,2.64"/>
	<path class="st2" d="M261.04,282.12c0,0-4.14,2.4-8.25,6.94"/>
	<path class="st2" d="M240.38,301.68c0,0-2.75,2.97-4.91,6.87"/>
	<path class="st2" d="M226.7,325.06c0,0-6.05,9.74-9.23,21.05"/>
	<path class="st2" d="M211.9,366.68c0,0-1.47,6.22-4.94,14.72"/>
	<path class="st2" d="M197.28,398.72c0,0-3.3,6.39-9.7,11.87"/>
	<path class="st2" d="M173.6,421.96c0,0-6.43,6.05-18.13,10.13"/>
	<path class="st2" d="M139.18,438.81c0,0-5.37,2.42-13.27,4.47"/>
	<path class="st2" d="M109.63,448.26c0,0-6.41,2.24-16.61,4.53"/>
	<path class="st2" d="M75.83,457.26c0,0-8.92,2.43-19.87,6.81"/>
	<path class="st2" d="M40.19,470.66c0,0-8.27,3.75-16.43,9.69"/>
	<path class="st2" d="M11.53,492.28c0,0-8.47,9.86-8.69,22.77"/>
	<path class="st2" d="M5.47,533.02c0,0,1.52,7.44,8.42,13.6"/>
	<path class="st2" d="M27.81,557.09c0,0,6.96,4.93,15.06,6.77"/>
	<path class="st2" d="M59.93,568.54c0,0,5.95,2.01,14.9,1.95"/>
	<line class="st2" x1="92.02" y1="571" x2="103.99" y2="571"/>
	<path class="st2" d="M120.97,570.01c0,0,8.6-0.63,17.01-2.17"/>
	<path class="st2" d="M155.09,564.77c0,0,8.16-1.47,15.02-3.57"/>
	<path class="st2" d="M187.06,556.83c0,0,4.16-0.93,7.6-2.36"/>
</g>
</svg>
